<?xml version="1.0" encoding="utf-8"?>
<!-- Generator: Adobe Illustrator 19.0.0, SVG Export Plug-In . SVG Version: 6.00 Build 0)  -->
<svg version="1.1" xmlns="http://www.w3.org/2000/svg" xmlns:xlink="http://www.w3.org/1999/xlink" x="0px" y="0px"
	 viewBox="0 0 350 390" style="enable-background:new 0 0 350 390;" xml:space="preserve">
<style type="text/css">
	.st0{fill:#56696B;}
	.st1{fill:#677E82;}
	.st2{fill:#799AA3;}
	.st3{display:none;fill:#FFA266;}
	.st4{display:none;fill:#799AA3;}
	.st5{fill:#99B9C1;}
	.st6{fill:url(#XMLID_50_);}
	.st7{fill:url(#XMLID_51_);}
	.st8{fill:url(#XMLID_52_);}
	.st9{fill:url(#XMLID_53_);}
	.st10{fill:url(#XMLID_54_);}
	.st11{fill:url(#XMLID_55_);}
	.st12{fill:url(#XMLID_56_);}
	.st13{fill:url(#XMLID_57_);}
</style>
<g id="Layer_1">
	<path id="XMLID_20_" class="st0" d="M168,74.4c6.8-0.8,12.5,5.1,15.2,14.1c6.9,23-23,71.6-41,104.3c-7.9,0.8-14.8,2.4-19.8,4.7
		C88.1,212.9,163.1,120.5,168,74.4z"/>
	<path id="XMLID_5_" class="st1" d="M155.5,43.6c6.8-0.8,12.5,5.1,15.2,14.1c6.9,23-23,71.6-41,104.3c-7.9,0.8-14.8,2.4-19.8,4.7
		C75.5,182.1,150.6,89.7,155.5,43.6z"/>
	<path id="XMLID_18_" class="st2" d="M97.2,260.4c0,32.6,26.4,59,59,59c25.3,0,47-16,55.3-38.4c19.9-10.9,44.7,2.6,36.4,15.3
		c-11.7,32.9-37.7,87.1-109,87.1c-30.3,0-123.7-13.9-123.7-125c0-103.6,78.2-173.1,112.3-231.1c12.5-21.3,26-14.8,30.7,0.7
		c11.6,39-82.6,152.2-44.7,135.3c18.1-8.4,63.3-7.2,82.4,4.6c21.1,13,25,25.7,44.1,34.3c8.1,3.6,12.3,11.5,11.9,19.3
		c-0.3,6.5-3.7,12.8-10.7,16.5c-0.8,0.4-1.6,0.8-2.5,1.1c-12.8,4.5-21.7,1.2-29.5-4.7c-9.6-19.6-29.7-33-53-33
		C123.6,201.4,97.2,227.8,97.2,260.4z"/>
	<path id="XMLID_31_" class="st3" d="M299,353.5C299,353.5,299,353.5,299,353.5c0,0.2,0,0.3,0,0.5c0,0,0,0,0,0
		c0,2.9-0.7,5.8-2.6,8.7c-13.8,38.6-39.2,94.8-94.2,125c-1.2,0.6-2.3,1.3-3.5,1.9c-0.9,0.5-1.8,1-2.7,1.4c-0.3,0.2-0.7,0.3-1,0.5
		c-0.7,0.3-1.3,0.7-2,1c-0.8,0.4-1.6,0.8-2.5,1.1c-0.4,0.2-0.7,0.3-1.1,0.5c-1,0.5-2,0.9-3.1,1.3c-0.2,0.1-0.5,0.2-0.7,0.3
		c-1.2,0.5-2.5,1-3.7,1.5c-0.1,0-0.1,0.1-0.2,0.1c-0.9,0.3-1.8,0.7-2.7,1c-1.9,0.7-3.9,1.4-5.9,2c-0.1,0-0.1,0-0.2,0.1
		c-17.4,5.5-37,8.7-59.4,8.7c-24.7,0-74.3-5.5-118.9-32.5c-0.8-0.5-1.6-1-2.4-1.5c-34.8-24.2-61.7-59-75.9-99.7c0-0.1,0-0.1-0.1-0.2
		c-6.7-21.7-10.5-46.9-10.5-76c0-3.6,0.1-7.2,0.2-10.8c8.6-88.5,74-160.3,159.3-178.6c13.8-3,28.1-4.5,42.8-4.5
		c74.2,0,139.1,39.8,174.5,99.2c7.8,13.1,14.2,27.2,18.9,42.1c-2.6,7.3-7.9,13.9-16.2,18.3c-1.3,0.7-2.7,1.3-4.2,1.9
		c-21.5,7.6-36.4,2-49.6-7.8c-16.1-32.9-49.9-55.5-89-55.5c-54.7,0-99.1,44.4-99.1,99.1c0,54.7,44.4,99.1,99.1,99.1
		c42.6,0,78.9-26.9,92.9-64.5c15.6-8.5,32.9-7.5,45.6-2.6c1.5,0.6,3,1.6,4.4,2.6c0,0,0,0,0,0c0.9,0,1.8,0,2.7,0c0,0,0,0,0,0
		C294.8,341,299,347.3,299,353.5z"/>
	<path id="XMLID_44_" class="st4" d="M308,341c-10.8,64-50.9,117.2-105.8,146.1c-1.2,0.6-2.3,1.5-3.5,2.2c-0.9,0.5-1.8,1.1-2.8,1.5
		c-0.3,0.2-0.7,0.4-1,0.6c-0.7,0.3-1.3,0.7-2,1c-0.8,0.4-1.6,0.8-2.5,1.2c-0.4,0.2-0.7,0.3-1.1,0.5c-1,0.5-2,0.9-3.1,1.3
		c-0.2,0.1-0.5,0.2-0.7,0.3c-1.2,0.5-2.5,1-3.7,1.5c-0.1,0-0.1,0.1-0.2,0.1c-0.9,0.3-1.8,0.7-2.7,1c-1.9,0.7-3.9,1.4-5.9,2
		c-0.1,0-0.1,0-0.2,0.1c-20.4,6.9-42.2,10.7-64.9,10.7c-42,0-80.9-12.6-113.3-34.4c-0.8-0.5-1.6-1-2.4-1.5c-32-20-61-51.2-75.9-99.7
		c0-0.1,0-0.1-0.1-0.2c-7.3-21-11.3-43.5-11.3-66.9c0-6.7,0.3-13.4,1-19.9C-88.8,120.2,38.3,6.3,94.3-88.9
		c21-35.7,43.7-24.8,51.5,1.1C159-43.5,91.1,57.4,65.2,109.6c-12.5,25.1-15.2,38.9,5.4,29.7c30.3-14.2,106.2-12,138.4,7.7
		c35.2,21.6,41.8,42.9,73.4,57.3c7.8,13.1,14.2,27.2,18.9,42.1c-2.6,7.3-7.9,13.9-16.2,18.3c-1.3,0.7-2.7,1.3-4.2,1.9
		c-21.5,7.6-36.4,2-49.6-7.8c-16.1-32.9-49.9-55.5-89-55.5c-54.7,0-99.1,44.4-99.1,99.1c0,54.7,44.4,99.1,99.1,99.1
		c42.6,0,78.9-26.9,92.9-64.5c15.6-8.5,32.9-7.5,45.6-2.6c1.5,0.6,3,1.6,4.4,2.6c0,0,0,0,0,0c0.9,0,1.8,0,2.7,0c0,0,0,0,0,0
		c6.8,4,11,10.4,11,16.8c0-0.1-0.1-0.1-0.1-0.2c0,0,0,0,0,0c0-4.1-1.5-8.5-4.5-12.5H308z"/>
	<path id="XMLID_38_" class="st5" d="M151.6,382.2c2.4,0,4.7-0.1,6.9-0.2c-6,0.9-12.5,1.4-19.5,1.4c-30.3,0-123.7-13.9-123.7-125
		c0-103.6,78.2-173.1,112.3-231.1c3.4-5.9,7.4-9.4,11.5-11.2C111.3,86.4,35.4,156.4,35.4,254.7C35.4,365.7,121.3,382.2,151.6,382.2z
		"/>
	<path id="XMLID_14_" class="st5" d="M251.9,221.5c-0.3,6.5-3.7,12.8-10.7,16.5c-0.8,0.4-1.6,0.8-2.5,1.1
		c-27.1,9.6-36.8-16.2-55.7-26c-0.9-0.5-9.6-5.7-26.9-5.7c-30.6,0-55.5,24.8-55.5,55.5c0,18.4,8.9,33.4,22.7,43.5
		c-23.3-13.2-30.3-34-30.3-52.3c1.3-36.9,31.2-58,61.8-58c17.3,0,29.7,7.7,30.7,8.2c18.8,9.8,29,36.9,53.1,28.6
		C247.3,229.8,250.8,226.3,251.9,221.5z"/>
</g>
<g id="Layer_2">
	<linearGradient id="XMLID_50_" gradientUnits="userSpaceOnUse" x1="156.2192" y1="215.5127" x2="156.2192" y2="309.2896">
		<stop  offset="0" style="stop-color:#FFFF88"/>
		<stop  offset="0.132" style="stop-color:#FFFF91"/>
		<stop  offset="0.3514" style="stop-color:#FFFFAB"/>
		<stop  offset="0.5924" style="stop-color:#FFFFCE"/>
		<stop  offset="0.7599" style="stop-color:#EAE790"/>
		<stop  offset="0.9944" style="stop-color:#CBC332"/>
	</linearGradient>
	<path id="XMLID_32_" class="st6" d="M156.2,215.5c-25.9,0-46.9,21-46.9,46.9s21,46.9,46.9,46.9s46.9-21,46.9-46.9
		S182.1,215.5,156.2,215.5z M156.2,302c-21.9,0-39.6-17.7-39.6-39.6c0-21.9,17.7-39.6,39.6-39.6c21.9,0,39.6,17.7,39.6,39.6
		C195.8,284.3,178.1,302,156.2,302z"/>
	<linearGradient id="XMLID_51_" gradientUnits="userSpaceOnUse" x1="156.2192" y1="307.7017" x2="156.2192" y2="217.1006">
		<stop  offset="0" style="stop-color:#DEDD77"/>
		<stop  offset="3.084556e-002" style="stop-color:#E0DD69"/>
		<stop  offset="0.1283" style="stop-color:#E7DC42"/>
		<stop  offset="0.2178" style="stop-color:#EBDB25"/>
		<stop  offset="0.2956" style="stop-color:#EEDB14"/>
		<stop  offset="0.3531" style="stop-color:#EFDB0E"/>
		<stop  offset="0.9944" style="stop-color:#EFD222"/>
	</linearGradient>
	<path id="XMLID_9_" class="st7" d="M156.2,217.1c-25,0-45.3,20.3-45.3,45.3c0,25,20.3,45.3,45.3,45.3s45.3-20.3,45.3-45.3
		C201.5,237.4,181.2,217.1,156.2,217.1z M127.9,269.9c-4,0-7.3-3.3-7.3-7.3c0-4,3.3-7.3,7.3-7.3c4,0,7.3,3.3,7.3,7.3
		C135.2,266.7,132,269.9,127.9,269.9z"/>
	<linearGradient id="XMLID_52_" gradientUnits="userSpaceOnUse" x1="127.9254" y1="253.899" x2="127.9254" y2="271.3802">
		<stop  offset="0" style="stop-color:#FFF3CE"/>
		<stop  offset="0.4579" style="stop-color:#F6F0D3"/>
		<stop  offset="0.5504" style="stop-color:#F3EFD4"/>
		<stop  offset="0.9944" style="stop-color:#E3E6AE"/>
	</linearGradient>
	<path id="XMLID_7_" class="st8" d="M127.9,253.9c-4.8,0-8.7,3.9-8.7,8.7s3.9,8.7,8.7,8.7c4.8,0,8.7-3.9,8.7-8.7
		S132.8,253.9,127.9,253.9z M127.9,269.9c-4,0-7.3-3.3-7.3-7.3c0-4,3.3-7.3,7.3-7.3c4,0,7.3,3.3,7.3,7.3
		C135.2,266.7,132,269.9,127.9,269.9z"/>
	<linearGradient id="XMLID_53_" gradientUnits="userSpaceOnUse" x1="196" y1="261.5609" x2="340.395" y2="261.5609">
		<stop  offset="0" style="stop-color:#FFFF88"/>
		<stop  offset="0.916" style="stop-color:#FFF57A"/>
		<stop  offset="0.9248" style="stop-color:#F4EC7B"/>
		<stop  offset="0.9527" style="stop-color:#D7D37E"/>
		<stop  offset="0.9769" style="stop-color:#C5C47F"/>
		<stop  offset="0.9944" style="stop-color:#BFBF80"/>
	</linearGradient>
	<polygon id="XMLID_17_" class="st9" points="340.4,258.9 324.1,274.9 318.6,269.2 313.2,269.1 310.4,271.8 307.7,269.3 302.2,275 
		296.5,275 293.8,272 291,272 288.3,275.1 282.8,270 279.6,270 276.8,272.3 274.1,269.3 268.6,275.1 263.1,270 258.3,270 255.6,272 
		248,272 245.1,274.7 242.3,271.8 239.5,274.7 236.8,272 232.7,272 230,270 224.5,270 221.8,272.3 219.1,269.4 213.7,274.6 
		211,271.8 208,274.7 205.1,271.8 202.1,272.2 196.8,270 196,270 196,248 329.9,248 	"/>
	<linearGradient id="XMLID_54_" gradientUnits="userSpaceOnUse" x1="269.595" y1="278" x2="269.595" y2="250">
		<stop  offset="0" style="stop-color:#D8DBAF"/>
		<stop  offset="0.6627" style="stop-color:#E7DA52"/>
		<stop  offset="0.9902" style="stop-color:#EDD929"/>
	</linearGradient>
	<polygon id="XMLID_27_" class="st10" points="342.2,260.3 338.8,263.7 338.5,264 331.8,270.8 324.6,277.9 319.2,272.4 313.7,272.4 
		311,275.2 308.3,272.5 308.3,272.4 308.2,272.5 302.8,278 297,278 294.3,275 291.5,275 288.8,277.6 283.3,272 280.1,272 277.4,275 
		274.6,272.3 274.5,272.4 269.1,277.7 263.6,272 258.8,272 256.1,275 248.5,275 245.7,277.9 242.8,275.1 240,277.8 237.3,275 
		233.2,275 230.5,272 225,272 222.3,275 219.7,272.4 214.2,277.6 211.5,275.1 197,275.1 197,272 197,250 331.9,250 338.9,257 	"/>
	<linearGradient id="XMLID_55_" gradientUnits="userSpaceOnUse" x1="199.0087" y1="283.7506" x2="199.0087" y2="241.6291">
		<stop  offset="0" style="stop-color:#B1B564"/>
		<stop  offset="0.3001" style="stop-color:#C4C151"/>
		<stop  offset="0.9902" style="stop-color:#EDD929"/>
	</linearGradient>
	<path id="XMLID_3_" class="st11" d="M202,242v41.4c0,0.3,0.1,0.4-0.2,0.4l-5.4-1.8c-0.2,0-0.4-0.2-0.4-0.4v-36.8
		c0-0.1,0.4-0.3,0.5-0.3l5.1-2.9C201.9,241.5,202,241.7,202,242z"/>
	<g id="XMLID_2_">
		<linearGradient id="XMLID_56_" gradientUnits="userSpaceOnUse" x1="203.8493" y1="274.5" x2="331.56" y2="274.5">
			<stop  offset="4.201681e-003" style="stop-color:#B1B564"/>
			<stop  offset="0.9902" style="stop-color:#C5B945"/>
		</linearGradient>
		<path id="XMLID_21_" class="st12" d="M331.6,271l-6.9,6.9l-5.5-5.5l-5.4,0l-2.7,2.7l-2.7-2.7l0,0l0,0.1l-5.5,5.5H297l-2.7-3h-2.7
			l-2.7,2.6l-5.5-5.6h-3.2l-2.7,3l-2.8-2.7l0,0.1l-5.5,5.3l-5.5-5.7h-4.8l-2.7,3h-7.6l-2.8,2.9l-2.8-2.8l-2.8,2.7l-2.8-2.8h-4.1
			l-2.7-3H225l-2.7,3l-2.7-2.6l-5.4,5.2l-2.8-2.5l-7.4,0L204,275c-0.1-0.1-0.2-0.3-0.2-0.5c-0.1-2.6,8.6-3.5,16.4-3.5H331.6z"/>
		<linearGradient id="XMLID_57_" gradientUnits="userSpaceOnUse" x1="203.8493" y1="260.5" x2="342.19" y2="260.5">
			<stop  offset="4.201681e-003" style="stop-color:#B1B564"/>
			<stop  offset="0.9902" style="stop-color:#C5B945"/>
		</linearGradient>
		<path id="XMLID_6_" class="st13" d="M342.2,260.3l-3.3,3.4l-0.3,0.3H220.2c-7.4,0-16.4-1.5-16.4-3.5c-0.1-2.6,8.6-3.5,16.4-3.5
			h118.7L342.2,260.3z"/>
	</g>
</g>
</svg>
